<svg width="547" height="547" viewBox="0 0 547 547" fill="none" xmlns="http://www.w3.org/2000/svg">
  <path d="M54.7001 109.4L164.1 109.4L54.7001 218.8L54.7001 109.4Z" fill="#C4EEED"/>
  <path d="M328.2 109.4L328.2 6.10352e-05L437.6 109.4L328.2 109.4Z" fill="#F7C643"/>
  <rect x="328.2" y="328.2" width="109.4" height="109.4" fill="#C4EEED"/>
  <rect x="54.6997" y="6.10352e-05" width="109.4" height="109.4" fill="#FFE7E5"/>
  <path d="M218.8 54.7001C218.8 24.4901 194.31 5.99647e-05 164.1 5.86441e-05L164.1 109.4C194.31 109.4 218.8 84.91 218.8 54.7001Z" fill="#FFE7E5"/>
  <path d="M328.2 218.8L328.2 328.2L218.8 218.8L328.2 218.8Z" fill="#4BCBC9"/>
  <path d="M437.6 328.2L547 218.8L547 437.6L437.6 328.2Z" fill="#C4EEED"/>
  <path d="M547 109.4L437.6 218.8L437.6 5.14711e-05L547 109.4Z" fill="#C4EEED"/>
  <circle cx="437.6" cy="327.744" r="54.7" transform="rotate(-180 437.6 327.744)" fill="#F7C643"/>
  <circle cx="54.7" cy="109.4" r="54.7" fill="#FEF8E7"/>
  <circle cx="328.2" cy="382.9" r="54.7" transform="rotate(-180 328.2 382.9)" fill="#C4EEED"/>
  <path d="M273.5 382.9C273.5 397.407 279.262 411.321 289.521 421.579C299.779 431.837 313.692 437.6 328.199 437.6C328.199 423.093 322.436 409.18 312.178 398.921C301.92 388.663 288.007 382.9 273.5 382.9V382.9Z" fill="#4BCBC9"/>
  <path d="M273.5 382.9C258.992 382.9 245.079 388.663 234.821 398.921C224.563 409.18 218.8 423.093 218.8 437.6C233.307 437.6 247.22 431.837 257.478 421.579C267.737 411.321 273.5 397.408 273.5 382.9V382.9Z" fill="#4BCBC9"/>
  <path d="M273.5 382.9C273.5 368.393 267.737 354.48 257.478 344.221C247.22 333.963 233.307 328.2 218.8 328.2C218.8 342.708 224.563 356.621 234.821 366.879C245.079 377.137 258.992 382.9 273.5 382.9V382.9Z" fill="#4BCBC9"/>
  <path d="M273.5 382.9C288.007 382.9 301.92 377.137 312.178 366.879C322.436 356.621 328.199 342.708 328.199 328.2C313.692 328.2 299.779 333.963 289.521 344.221C279.262 354.48 273.5 368.393 273.5 382.9V382.9Z" fill="#4BCBC9"/>
  <path d="M218.8 54.6999C218.8 69.2072 224.563 83.1204 234.821 93.3786C245.079 103.637 258.992 109.4 273.5 109.4C273.5 94.8925 267.737 80.9793 257.478 70.7211C247.22 60.4629 233.307 54.6999 218.8 54.6999V54.6999Z" fill="#CE0D00"/>
  <path d="M218.8 54.6999C204.292 54.6999 190.379 60.4629 180.121 70.7211C169.863 80.9793 164.1 94.8925 164.1 109.4C178.607 109.4 192.52 103.637 202.778 93.3786C213.036 83.1204 218.8 69.2072 218.8 54.6999V54.6999Z" fill="#CE0D00"/>
  <path d="M218.799 54.6998C218.799 40.1925 213.036 26.2794 202.778 16.0212C192.52 5.76294 178.607 -4.99205e-05 164.1 -5.43594e-05C164.1 14.5073 169.863 28.4204 180.121 38.6786C190.379 48.9368 204.292 54.6998 218.799 54.6998V54.6998Z" fill="#CE0D00"/>
  <path d="M218.8 54.6998C233.307 54.6998 247.22 48.9368 257.478 38.6786C267.737 28.4204 273.5 14.5073 273.5 -3.76224e-05C258.992 -4.20613e-05 245.079 5.76294 234.821 16.0212C224.563 26.2794 218.8 40.1925 218.8 54.6998V54.6998Z" fill="#CE0D00"/>
  <path d="M328.2 547L328.2 437.6L437.6 547L328.2 547Z" fill="#FEF8E7"/>
  <path d="M218.8 547L328.2 547L218.8 437.6L218.8 547Z" fill="#FFE7E5"/>
  <path d="M218.8 437.6L218.8 547L109.4 437.6L218.8 437.6Z" fill="#FFE7E5"/>
  <path d="M382.9 328.2C382.9 358.41 407.39 382.9 437.6 382.9L437.6 328.2L382.9 328.2Z" fill="#FEF8E7"/>
  <path d="M109.4 109.4C109.4 79.1901 84.9099 54.7001 54.6999 54.7001L54.6999 109.4L109.4 109.4Z" fill="#C4EEED"/>
  <path d="M407.281 545.992H433.498C442.815 525.059 450.181 505.853 456.031 489.453H418.981C413.565 512.543 409.665 531.318 407.281 545.992Z" fill="#4BCBC9"/>
  <path d="M457.765 437.661C457.765 449.314 449.748 456.867 437.615 456.867C425.482 456.867 417.682 449.314 417.682 437.661C417.682 426.224 425.482 418.455 437.615 418.455C449.748 418.455 457.765 426.224 457.765 437.661Z" fill="#FEF8E7"/>
  <path fill-rule="evenodd" clip-rule="evenodd" d="M437.616 418.455C449.749 418.455 457.766 426.008 457.766 437.661C457.766 449.098 449.749 456.867 437.616 456.867C425.509 456.867 417.717 449.133 417.683 437.736H437.572V418.455C437.586 418.455 437.601 418.455 437.616 418.455Z" fill="#4BCBC9"/>
  <path d="M164.1 328.2L54.7001 437.6V218.8L164.1 328.2Z" fill="#FEF8E7"/>
  <path d="M109.317 356.813H100.315C80.702 356.813 65.5906 344.616 65.5906 313.002C65.5906 305.459 62.5361 300.324 54.6588 300.324V275.289C61.25 275.289 65.5906 272.24 65.5906 264.216C65.5906 236.934 76.2007 218.8 100.315 218.8H109.317V242.872H104.655C96.6173 242.872 90.8299 248.007 90.8299 264.216C90.8299 276.412 87.454 284.757 78.7729 287.325V288.288C86.0071 290.535 90.8299 296.954 90.8299 311.397C90.8299 325.68 94.8489 332.741 104.655 332.741H109.317V356.813Z" fill="#F7C643"/>
  <circle cx="54.7" cy="437.6" r="54.7" fill="#C4EEED"/>
  <path d="M109.4 437.6C109.4 407.39 84.9099 382.9 54.6999 382.9L54.6999 437.6L109.4 437.6Z" fill="#4BCBC9"/>
  <path fill-rule="evenodd" clip-rule="evenodd" d="M437.6 218.8H328.2V328.2L437.6 218.8ZM218.8 328.2H328.2V218.8L218.8 328.2Z" fill="#FFE7E5"/>
  <path d="M218.719 546.917V518.576C193.139 509.413 167.772 500.25 146.455 492.152C167.772 484.055 193.139 475.105 218.719 465.942V437.6C183.12 451.877 147.734 465.942 112.135 482.35V502.168C147.734 518.576 183.12 532.64 218.719 546.917Z" fill="#CE0D00"/>
  <path d="M547 47.8301V29.0627H528.382L534.478 0.911743H512.73L506.634 29.0627H489.829L495.925 0.911743H474.177L468.081 29.0627H443.696V47.8301H464.126L460.172 66.1035H437.6V84.8709H456.053L450.781 109.4H472.529L477.801 84.8709H494.442L489.17 109.4H511.083L516.355 84.8709H540.904V66.1035H520.474L524.428 47.8301H547ZM498.561 66.1035H481.92L485.874 47.8301H502.515L498.561 66.1035Z" fill="#4BCBC9"/>
  <path d="M437.6 109.4L328.2 109.4L437.6 7.62939e-05V109.4Z" fill="#FEF8E7"/>
  <path d="M437.6 109.4L437.6 218.8L328.2 109.4L437.6 109.4Z" fill="#FEF8E7"/>
</svg>